 <svg  version="1.0" xmlns="http://www.w3.org/2000/svg"  width="204.000000pt" height="148.000000pt" viewBox="0 0 204.000000 148.000000"  preserveAspectRatio="xMidYMid meet">  <g transform="translate(0.000000,148.000000) scale(0.050000,-0.050000)" fill="#858585" stroke="none"> <path d="M1685 2076 l-346 -201 6 -400 5 -399 340 -198 c187 -109 350 -196 361 -193 12 3 172 91 356 195 l333 190 -5 407 -5 408 -330 190 c-181 104 -339 192 -350 195 -11 4 -175 -84 -365 -194z m542 -53 c90 -53 215 -126 278 -162 l116 -64 -6 -324 -5 -323 -283 -163 -283 -163 -157 90 c-86 50 -197 114 -247 142 -49 28 -106 60 -125 72 -32 20 -35 54 -30 351 l5 329 270 156 c319 185 267 178 467 59z"/> <path d="M2080 1479 c0 -297 4 -539 10 -539 5 0 100 54 212 120 111 66 210 120 220 120 32 0 21 213 -12 240 -16 14 -30 36 -30 50 0 14 14 36 30 50 20 16 30 61 30 130 l0 105 -230 131 -230 131 0 -538z m316 136 l6 -75 -91 0 -91 0 0 121 0 122 85 -47 c74 -40 86 -57 91 -121z m4 -271 c0 -68 -9 -81 -78 -120 -104 -59 -102 -61 -102 76 l0 120 90 0 90 0 0 -76z"/> <path d="M1770 1885 l-200 -115 -6 -290 -5 -290 115 -65 c64 -35 163 -91 221 -125 l105 -61 0 231 0 230 -60 0 c-59 0 -60 -1 -60 -110 0 -127 -15 -134 -125 -59 l-75 50 0 199 0 198 87 51 c114 67 113 68 113 -59 0 -109 1 -110 60 -110 l60 0 0 220 c0 121 -7 220 -15 220 -8 -1 -105 -52 -215 -115z"/> </g> </svg> 