<?xml version="1.0" standalone="no"?>
<!DOCTYPE svg PUBLIC "-//W3C//DTD SVG 20010904//EN"
 "http://www.w3.org/TR/2001/REC-SVG-20010904/DTD/svg10.dtd">
<svg version="1.0" xmlns="http://www.w3.org/2000/svg"
 width="360.000000pt" height="360.000000pt" viewBox="0 0 360.000000 360.000000"
 preserveAspectRatio="xMidYMid meet">
<metadata>
Created by potrace 1.10, written by Peter Selinger 2001-2011
</metadata>
<g transform="translate(0.000000,360.000000) scale(0.100000,-0.100000)"
fill="#ffffff" stroke="none">
<path d="M1640 2819 c-52 -10 -117 -22 -145 -25 -27 -3 -57 -8 -65 -11 -8 -3
-22 -7 -30 -9 -8 -1 -78 -14 -155 -28 -77 -15 -152 -29 -167 -31 -30 -4 -66
-22 -85 -41 -10 -10 -12 -137 -10 -606 1 -326 5 -602 9 -613 17 -55 41 -105
51 -105 6 0 8 -3 4 -6 -6 -7 40 -80 69 -108 8 -9 13 -16 9 -16 -3 0 14 -18 39
-39 25 -21 42 -42 39 -45 -4 -3 1 -6 10 -6 10 0 17 -4 17 -9 0 -5 28 -33 63
-61 34 -28 71 -59 82 -68 32 -27 75 -53 75 -46 0 4 8 -3 19 -14 10 -12 21 -22
24 -22 3 0 26 -14 51 -31 26 -17 51 -27 58 -23 7 4 10 4 6 -1 -8 -8 15 -35 30
-35 6 0 30 -11 53 -25 48 -27 79 -31 97 -13 9 9 15 9 24 0 18 -18 42 -15 105
16 65 30 85 46 75 57 -4 5 -1 5 6 1 7 -4 32 6 58 23 25 17 48 31 51 31 3 0 14
9 24 21 9 11 19 20 21 19 9 -4 37 13 33 20 -3 5 0 12 6 16 8 4 9 3 5 -4 -19
-31 21 -2 80 56 13 14 28 21 35 16 7 -4 10 -3 8 2 -4 8 62 80 69 76 1 -1 2 0
2 3 2 10 73 75 83 75 6 0 8 3 4 6 -3 3 7 20 23 37 35 37 100 166 105 208 2 16
6 33 9 38 12 19 8 210 -6 238 -14 29 -13 63 3 63 5 0 9 180 9 431 0 336 -3
434 -13 444 -20 19 -72 44 -93 44 -10 -1 -82 11 -159 26 -77 15 -147 28 -155
29 -8 2 -22 6 -30 9 -8 4 -35 8 -60 11 -25 2 -94 13 -153 25 -101 20 -111 21
-133 6 -22 -14 -27 -14 -46 0 -26 18 -18 18 -138 -6z m130 -308 l0 -290 -130
-3 -130 -3 0 138 c0 75 -3 137 -7 137 -7 0 -166 -28 -200 -36 l-23 -4 0 -461
c0 -446 1 -461 21 -501 20 -40 184 -218 200 -218 5 0 9 86 9 190 l0 190 130 0
130 0 0 -425 c0 -234 -3 -425 -6 -425 -12 0 -223 125 -299 178 -184 127 -327
268 -389 382 -55 102 -56 107 -56 731 l0 576 43 7 c23 3 184 32 357 65 173 32
323 59 333 60 16 1 17 -19 17 -288z m403 228 c183 -33 349 -63 370 -66 l37 -6
0 -434 0 -435 -35 4 c-19 2 -35 1 -35 -2 0 -3 16 -22 36 -41 l36 -34 -4 -131
c-3 -127 -4 -133 -40 -205 -86 -174 -286 -353 -590 -528 -58 -33 -109 -61
-112 -61 -3 0 -6 450 -6 1000 0 550 3 1000 6 1000 3 0 155 -27 337 -61z m-701
-409 c0 -52 2 -100 2 -107 1 -15 26 -41 26 -28 0 6 5 3 10 -5 12 -20 257 -23
252 -2 -3 18 15 15 22 -5 10 -25 6 -523 -4 -523 -4 0 -10 6 -12 13 -5 13 -190
24 -233 13 -28 -7 -78 -57 -67 -68 11 -11 2 -248 -9 -248 -26 0 -122 118 -133
163 -5 21 -8 793 -3 875 0 12 23 17 60 14 9 -1 17 3 17 9 0 6 9 8 21 4 15 -5
19 -4 14 5 -5 8 0 7 14 -2 19 -11 21 -23 23 -108z"/>
<path d="M2090 2275 l0 -215 115 0 115 0 0 195 c0 194 0 195 -22 199 -35 8
-194 36 -201 36 -4 0 -7 -97 -7 -215z m76 166 c-3 -5 21 -11 53 -15 l59 -7 1
-153 c2 -172 5 -166 -74 -166 -78 0 -75 -6 -75 167 0 137 2 157 18 169 20 16
25 17 18 5z"/>
<path d="M2090 1535 c0 -146 4 -265 9 -265 16 0 180 178 200 218 13 25 21 60
21 89 0 46 -3 52 -81 136 -71 77 -85 87 -115 87 l-34 0 0 -265z m81 189 c27
-30 46 -47 74 -70 11 -8 14 -13 8 -9 -9 4 -11 1 -7 -9 3 -9 9 -14 13 -12 3 2
12 -2 19 -10 7 -8 9 -14 5 -14 -4 0 -8 -19 -8 -43 1 -36 -6 -51 -53 -109 -30
-38 -56 -68 -57 -68 -2 0 -10 -3 -19 -6 -14 -5 -16 15 -16 185 0 106 4 191 9
191 5 0 19 -12 32 -26z"/>
</g>
</svg>
