<?xml version="1.0" standalone="no"?>
<!DOCTYPE svg PUBLIC "-//W3C//DTD SVG 20010904//EN"
 "http://www.w3.org/TR/2001/REC-SVG-20010904/DTD/svg10.dtd">
<svg version="1.0" xmlns="http://www.w3.org/2000/svg"
 width="300.000000pt" height="300.000000pt" viewBox="0 0 300.000000 300.000000"
 preserveAspectRatio="xMidYMid meet">
<metadata>
Created by potrace 1.10, written by Peter Selinger 2001-2011
</metadata>
<g transform="translate(0.000000,300.000000) scale(0.100000,-0.100000)"
fill="#000000" stroke="none">
<path d="M1295 2345 c-66 -13 -133 -26 -150 -29 -16 -4 -88 -17 -159 -30 -114
-20 -132 -26 -153 -50 l-23 -27 0 -472 c0 -365 3 -485 14 -525 26 -101 121
-228 251 -334 73 -59 71 -58 115 -88 19 -14 37 -28 40 -31 3 -3 47 -30 99 -60
88 -50 100 -54 166 -56 71 -2 74 -1 171 54 54 31 101 59 104 62 3 4 32 24 65
46 33 22 107 87 165 145 85 85 113 120 145 184 39 77 40 83 42 189 1 66 -3
117 -10 127 -8 14 -8 28 2 57 9 28 11 126 9 375 -3 330 -3 338 -25 359 -21 22
-43 27 -478 105 -116 21 -143 23 -163 13 -18 -10 -27 -10 -42 -1 -25 15 -41
14 -185 -13z m178 -254 l2 -241 -107 0 -108 0 0 116 c0 97 -2 115 -14 111 -8
-3 -43 -11 -78 -17 -35 -6 -72 -12 -83 -15 -20 -4 -20 -11 -17 -396 l2 -391
29 -42 c16 -22 59 -70 95 -106 l66 -64 0 164 0 165 105 -2 105 -2 3 -355 c1
-196 -1 -355 -4 -354 -4 2 -64 38 -135 81 -227 137 -382 279 -449 414 l-30 58
-3 508 -3 507 33 1 c18 0 157 24 308 53 151 28 276 51 278 50 2 -1 4 -110 5
-243z m645 140 l32 -1 0 -366 0 -366 -30 4 c-38 6 -38 -3 1 -35 l31 -26 -4
-113 c-3 -100 -7 -120 -33 -171 -66 -134 -222 -277 -449 -414 -71 -43 -131
-79 -135 -81 -4 -1 -5 1612 -1 1674 0 0 125 -24 278 -52 152 -29 292 -53 310
-53z m-904 -233 c3 -13 7 -53 9 -90 4 -94 12 -99 150 -96 l107 3 0 -202 0
-203 -110 0 c-99 0 -111 -2 -130 -22 -22 -24 -22 -21 -20 -135 1 -46 -3 -84
-9 -87 -19 -12 -98 84 -102 124 -1 14 -1 179 -1 368 l2 343 23 9 c42 17 76 12
81 -12z"/>
<path d="M1740 1901 l0 -181 98 0 97 0 0 160 c0 153 -1 161 -20 165 -11 2 -47
9 -80 15 -33 6 -68 14 -77 16 -17 5 -18 -8 -18 -175z m143 100 c4 -4 6 -59 5
-122 l-3 -114 -44 -3 c-26 -2 -47 1 -51 9 -10 15 -13 210 -4 233 6 15 14 17
48 12 23 -4 45 -11 49 -15z"/>
<path d="M1740 1273 l0 -227 66 64 c92 90 124 142 124 201 0 44 -4 51 -66 118
-53 57 -72 71 -95 71 l-29 0 0 -227z m101 125 c58 -61 64 -82 39 -132 -20 -43
-75 -106 -91 -106 -5 0 -9 63 -9 140 0 90 4 140 10 140 6 0 29 -19 51 -42z"/>
</g>
</svg>
